# xmcd
# Copyright (C) 1995-1998 Ti Kan
#
# Track frame offsets:
#       150
#       19120
#       37137
#       53705
#
# Disc length: 965 seconds
#
# Revision: 0
# Processed by: cddbd v1.5.2PL0 Copyright (c) Steve Scherf et al.
# Submitted via: CD-Import v1.0
#
DISCID=2d03c304
DTITLE=Datura Sunday's Walk - Demo
DYEAR=07
DGENRE=
TTITLE0=Let's Have A Gig
TTITLE1=Soul Mate
TTITLE2=Chaos
TTITLE3=Never
EXTD=
EXTT0=
EXTT1=
EXTT2=
EXTT3=
PLAYORDER=
